HIERARCHY
ROOT Hips
{
  OFFSET 0 0 0
  CHANNELS 6 Xposition Yposition Zposition Zrotation Yrotation Xrotation
  JOINT LeftThigh
  {
    OFFSET 8.409438 0 -5.917753
    CHANNELS 3 Zrotation Yrotation Xrotation
    JOINT LeftLeg
    {
      OFFSET 0 0 -42.358652
      CHANNELS 3 Zrotation Yrotation Xrotation
      JOINT LeftFoot
      {
        OFFSET 0 0 -39.357303
        CHANNELS 3 Zrotation Yrotation Xrotation
      }
    }
  }
  JOINT RightThigh
  {
    OFFSET -8.409438 0 -5.917753
    CHANNELS 3 Zrotation Yrotation Xrotation
    JOINT RightLeg
    {
      OFFSET 0 0 -42.358652
      CHANNELS 3 Zrotation Yrotation Xrotation
      JOINT RightFoot
      {
        OFFSET 0 0 -39.357303
        CHANNELS 3 Zrotation Yrotation Xrotation
      }
    }
  }
  JOINT SpineLow
  {
    OFFSET 0 0 4.719101
    CHANNELS 3 Zrotation Yrotation Xrotation
    JOINT SpineMid
    {
      OFFSET 0 0 12.899191
      CHANNELS 3 Zrotation Yrotation Xrotation
      JOINT Chest
      {
        OFFSET 0 0 12.899191
        CHANNELS 3 Zrotation Yrotation Xrotation
        JOINT LeftShoulder
        {
          OFFSET 7.550562 1.41573 9.438202
          CHANNELS 3 Zrotation Yrotation Xrotation
          JOINT LeftArm
          {
            OFFSET 9.155056 0 4.247191
            CHANNELS 3 Zrotation Yrotation Xrotation
            JOINT LeftForearm
            {
              OFFSET 0 0 25.771955
              CHANNELS 3 Zrotation Yrotation Xrotation
              JOINT LeftHand
              {
                OFFSET 0 0 25.197169
                CHANNELS 3 Zrotation Yrotation Xrotation
              }
            }
          }
        }
        JOINT RightShoulder
        {
          OFFSET -7.550562 1.41573 9.438202
          CHANNELS 3 Zrotation Yrotation Xrotation
          JOINT RightArm
          {
            OFFSET -9.155056 0 4.247191
            CHANNELS 3 Zrotation Yrotation Xrotation
            JOINT RightForearm
            {
              OFFSET 0 0 -25.771955
              CHANNELS 3 Zrotation Yrotation Xrotation
              JOINT RightHand
              {
                OFFSET 0 0 -25.197169
                CHANNELS 3 Zrotation Yrotation Xrotation
              }
            }
          }
        }
        JOINT Neck
        {
          OFFSET 0 0 15.101124
          CHANNELS 3 Zrotation Yrotation Xrotation
          JOINT Head
          {
            OFFSET 0 0 11.325843
            CHANNELS 3 Zrotation Yrotation Xrotation
            End Site
            {
              OFFSET 0 0 14.157303
            }
          }
        }
      }
    }
  }
}
MOTION
Frames: 10
Frame Time: 0.0
0.0  93.25843  0.0  -9.702828  -62.825274  -82.912961  22.776353  -13.334394  6.88738  14.046385  -1.116286  14.567595  14.394834  2.701374  3.648866  21.054437  -5.985831  -15.768836  3.94793  9.439363  7.666498  3.932396  1.479404  -0.119346  3.442748  -0.779809  -0.328173  9.423672  -2.079855  -1.006124  9.423671  -2.079855  -1.006124  -17.201799  1.396667  5.385283  -83.527206  46.310629  -59.319611  -12.909  -8.276596  125.413271  104.648537  23.129472  20.646368  -8.54901  -13.438058  29.33982  97.796785  41.433803  56.624075  -17.666566  -2.571662  -114.893021  63.74586  -8.408301  -19.608123  14.607076  -1.804813  4.385236  10.968015  -1.249694  3.334076  
0.0  93.25843  0.0  -9.252189  -59.636472  -83.517984  23.056846  -14.241515  6.257831  13.145141  -1.117074  14.411404  14.263285  3.339592  4.120642  18.808312  -5.846965  -14.982141  3.801227  9.082341  7.291599  3.367203  1.502685  -0.158776  2.660008  -1.035542  -0.287653  7.287082  -2.794934  -0.899528  7.287082  -2.794934  -0.899528  -16.282581  1.508267  5.450029  -79.32245  48.296444  -53.248942  -13.939952  -13.770791  124.56012  108.088504  25.924636  18.56987  -7.797567  -11.429271  28.505161  93.88684  38.709437  56.210535  -18.462283  -0.814321  -114.309818  64.220523  -8.491956  -19.227234  15.312605  -0.891375  4.931823  11.4923  -0.545364  3.723909  
0.0  93.25843  0.0  -9.015798  -55.789161  -83.960133  23.200359  -15.259622  5.459469  12.163204  -1.086811  14.065565  13.86418  3.342937  4.227001  16.425787  -5.774803  -13.997516  3.414386  8.802315  6.759172  3.16402  1.55511  -0.121744  1.942976  -1.228653  -0.291855  5.329848  -3.332389  -0.896599  5.329847  -3.332389  -0.896599  -16.29089  1.154682  5.719862  -74.778816  50.665864  -46.709585  -15.078535  -19.92258  123.185962  111.282833  28.595387  16.73618  -7.993655  -9.899479  27.911878  90.254295  35.97579  55.820584  -19.63897  1.131943  -113.527577  64.933516  -8.488199  -18.192291  15.37135  -0.312273  5.335498  11.532256  -0.100038  4.012484  
0.0  93.25843  0.0  -8.840872  -51.45563  -84.378351  23.359095  -16.249888  4.63267  11.083953  -1.017527  13.505064  13.718242  3.292532  4.545782  14.446944  -5.588649  -13.076595  2.063349  8.5146  6.182257  2.827006  1.631488  -0.081813  1.207429  -1.401355  -0.329028  3.322798  -3.812837  -0.970117  3.322798  -3.812837  -0.970117  -16.748316  0.701776  6.428275  -69.656546  53.082656  -39.823634  -15.722895  -26.71398  121.115938  114.031672  31.184382  14.494155  -8.460936  -8.446136  27.535497  86.813973  33.170346  55.402694  -21.057432  3.076598  -112.793119  66.097607  -8.529892  -16.592714  15.465768  0.138451  5.778373  11.59925  0.250344  4.333569  
0.0  93.25843  0.0  -8.870675  -46.858369  -84.614925  23.634257  -17.24406  3.707235  9.803754  -1.031003  12.810598  13.286326  3.199172  4.613556  12.815229  -5.350705  -12.315458  0.757137  8.112331  5.861428  2.50029  1.670721  0.010013  0.475899  -1.573828  -0.372432  1.326774  -4.294251  -1.050328  1.326774  -4.294251  -1.050328  -17.147999  0.153535  7.571391  -63.250437  54.974236  -32.020887  -15.574379  -33.393093  118.005712  115.84506  33.81713  11.226005  -8.990731  -7.062766  27.074649  83.373118  30.218052  54.897028  -22.695388  5.253071  -112.198718  67.263381  -8.607777  -14.802651  15.224025  0.513638  5.973772  11.414229  0.534551  4.470796  
0.0  93.25843  0.0  -8.644816  -43.7039  -85.438593  25.292619  -17.968246  3.32892  8.570431  -1.178762  12.099669  13.346446  2.961123  5.095776  12.726917  -4.780074  -11.255915  -0.808364  7.628497  5.696158  2.388369  1.720542  0.151177  -0.206104  -1.771306  -0.371032  -0.537021  -4.844685  -1.000705  -0.537021  -4.844684  -1.000705  -15.952558  -0.238914  9.25892  -55.315474  56.324805  -22.905526  -14.525562  -39.086443  113.093257  117.049988  36.221043  7.9029  -9.528934  -5.568182  26.052449  81.253641  26.446639  55.616056  -24.332579  7.058192  -111.769266  68.628931  -8.486766  -13.532478  15.665119  1.059144  6.418841  11.738939  0.959825  4.790577  
0.0  93.25843  0.0  -8.785562  -39.226121  -85.705088  25.667277  -18.834074  2.484422  7.260734  -1.34526  11.365303  12.740319  2.902044  5.065294  11.417404  -4.5098  -10.809079  -2.240227  7.207158  5.907538  2.062506  1.78401  0.247064  -0.955943  -1.945313  -0.402531  -2.585628  -5.332141  -1.025105  -2.585628  -5.332141  -1.025105  -14.936033  -2.123539  10.587623  -47.98694  57.375545  -14.212958  -11.878649  -43.430451  106.416353  118.038452  37.602224  6.568277  -9.486298  -4.427926  25.516005  77.389462  23.575743  55.588553  -25.27125  7.986297  -111.81199  70.381864  -8.211693  -12.573684  15.667168  1.362686  6.607782  11.73674  1.192565  4.924503  
0.0  93.25843  0.0  -8.974417  -34.7432  -86.00645  25.792381  -19.670533  1.643387  5.826372  -1.533559  10.644901  12.769781  2.593687  5.383787  10.065899  -4.35707  -10.491521  -4.038505  6.931805  6.207772  1.80041  1.908604  0.331609  -1.687962  -2.116103  -0.410013  -4.588669  -5.809408  -0.974447  -4.588669  -5.809408  -0.974447  -13.283818  -4.413163  11.135722  -41.051005  57.911965  -5.331158  -7.210068  -46.343965  98.464972  118.746634  38.141131  7.959728  -9.39594  -3.006883  25.008863  73.115562  20.997398  55.166192  -25.53537  8.71257  -112.041493  72.155176  -8.114972  -11.932821  15.694626  1.629898  6.778823  11.753838  1.397862  5.045854  
0.0  93.25843  0.0  -9.107715  -30.895912  -85.85315  26.299245  -20.108707  0.362595  4.379999  -1.773991  10.03845  12.2901  2.586187  5.301272  9.20963  -4.073783  -10.766455  -5.496408  6.742411  6.724175  1.537671  2.016792  0.408925  -2.281203  -2.241065  -0.511555  -6.204211  -6.16751  -1.188253  -6.204211  -6.167509  -1.188253  -11.187269  -6.847648  11.814192  -34.570214  57.412584  3.355619  -0.341998  -48.141205  88.934556  118.073179  38.742418  9.970319  -9.156843  -1.999824  24.491511  68.430126  18.500233  54.808553  -25.147211  9.233324  -112.450229  70.85081  -9.10316  -11.316501  15.5624  1.69135  6.943046  11.653549  1.446702  5.167802  
0.0  93.25843  0.0  -8.85622  -27.165445  -85.795694  26.338637  -20.161759  -0.775995  2.966035  -1.954044  9.505655  11.691848  2.611563  5.063523  8.34513  -3.629464  -11.066232  -6.732378  6.707398  7.305748  1.162971  2.135103  0.373369  -2.778994  -2.311371  -0.594945  -7.560204  -6.376385  -1.361592  -7.560204  -6.376385  -1.361592  -9.31133  -9.539448  12.053725  -28.888573  56.478839  10.960635  7.962946  -48.140513  78.291839  116.677172  39.258637  11.713925  -9.077013  -1.356264  22.816774  64.102199  15.446432  54.920626  -24.444106  9.254566  -112.831959  70.501489  -9.215511  -9.063549  15.528122  1.812081  7.023768  11.626143  1.538994  5.225333  
